<svg width="548" height="228" viewBox="0 0 548 228" fill="none" xmlns="http://www.w3.org/2000/svg">
<g opacity="0.9">
<path d="M26.32 136.5H23.66C20.4867 136.5 17.6167 135.963 15.05 134.89C12.4833 133.817 10.29 132.37 8.47 130.55C6.65 128.683 5.22667 126.49 4.2 123.97C3.22 121.403 2.73 118.65 2.73 115.71C2.73 112.77 3.22 110.017 4.2 107.45C5.18 104.883 6.58 102.667 8.4 100.8C10.22 98.9333 12.4133 97.4633 14.98 96.39C17.5933 95.3167 20.51 94.78 23.73 94.78H26.32V88.48H35.7V94.78H38.29C41.51 94.78 44.4033 95.3167 46.97 96.39C49.5833 97.4633 51.8 98.9333 53.62 100.8C55.44 102.667 56.84 104.883 57.82 107.45C58.8 110.017 59.29 112.77 59.29 115.71C59.29 118.65 58.7767 121.403 57.75 123.97C56.77 126.49 55.37 128.683 53.55 130.55C51.73 132.37 49.5133 133.817 46.9 134.89C44.3333 135.963 41.4867 136.5 38.36 136.5H35.7V142.8H26.32V136.5ZM26.53 128.87V102.41H23.73C21.8167 102.41 20.1367 102.69 18.69 103.25C17.29 103.81 16.1233 104.603 15.19 105.63C14.2567 106.61 13.5333 107.777 13.02 109.13C12.5533 110.483 12.32 111.93 12.32 113.47V117.81C12.32 119.35 12.5533 120.797 13.02 122.15C13.5333 123.503 14.2567 124.693 15.19 125.72C16.1233 126.7 17.29 127.47 18.69 128.03C20.1367 128.59 21.8167 128.87 23.73 128.87H26.53ZM38.29 128.87C40.1567 128.87 41.8133 128.59 43.26 128.03C44.7067 127.47 45.8967 126.7 46.83 125.72C47.7633 124.693 48.4633 123.503 48.93 122.15C49.4433 120.797 49.7 119.35 49.7 117.81V113.47C49.7 111.93 49.4433 110.483 48.93 109.13C48.4633 107.777 47.7633 106.61 46.83 105.63C45.8967 104.603 44.7067 103.81 43.26 103.25C41.8133 102.69 40.1567 102.41 38.29 102.41H35.49V128.87H38.29ZM67.742 140V91.14H89.722C91.962 91.14 93.9686 91.5133 95.742 92.26C97.562 92.96 99.102 93.9867 100.362 95.34C101.622 96.6467 102.579 98.2333 103.232 100.1C103.885 101.967 104.212 104.02 104.212 106.26C104.212 108.547 103.885 110.623 103.232 112.49C102.579 114.31 101.622 115.897 100.362 117.25C99.102 118.557 97.562 119.583 95.742 120.33C93.9686 121.03 91.962 121.38 89.722 121.38H76.982V140H67.742ZM76.982 113.4H88.882C90.6553 113.4 92.0553 112.933 93.082 112C94.1086 111.02 94.622 109.643 94.622 107.87V104.65C94.622 102.877 94.1086 101.523 93.082 100.59C92.0553 99.6567 90.6553 99.19 88.882 99.19H76.982V113.4ZM131.766 140.84C128.546 140.84 125.629 140.303 123.016 139.23C120.402 138.157 118.162 136.547 116.296 134.4C114.476 132.253 113.052 129.617 112.026 126.49C110.999 123.363 110.486 119.723 110.486 115.57C110.486 111.463 110.999 107.847 112.026 104.72C113.052 101.547 114.476 98.8867 116.296 96.74C118.162 94.5933 120.402 92.9833 123.016 91.91C125.629 90.8367 128.546 90.3 131.766 90.3C134.986 90.3 137.902 90.8367 140.516 91.91C143.129 92.9833 145.369 94.5933 147.236 96.74C149.102 98.8867 150.526 101.547 151.506 104.72C152.532 107.847 153.046 111.463 153.046 115.57C153.046 119.723 152.532 123.363 151.506 126.49C150.526 129.617 149.102 132.253 147.236 134.4C145.369 136.547 143.129 138.157 140.516 139.23C137.902 140.303 134.986 140.84 131.766 140.84ZM131.766 132.65C135.266 132.65 138.042 131.483 140.096 129.15C142.196 126.817 143.246 123.55 143.246 119.35V111.79C143.246 107.59 142.196 104.323 140.096 101.99C138.042 99.6567 135.266 98.49 131.766 98.49C128.266 98.49 125.466 99.6567 123.366 101.99C121.312 104.323 120.286 107.59 120.286 111.79V119.35C120.286 123.55 121.312 126.817 123.366 129.15C125.466 131.483 128.266 132.65 131.766 132.65ZM192.03 119.35H171.66V140H162.42V91.14H171.66V111.16H192.03V91.14H201.27V140H192.03V119.35ZM231.912 99.33V140H222.672V99.33H208.812V91.14H245.772V99.33H231.912ZM253.338 140V91.14H285.538V99.33H262.578V111.16H282.878V119.35H262.578V131.81H285.538V140H253.338ZM324.92 119.35H304.55V140H295.31V91.14H304.55V111.16H324.92V91.14H334.16V140H324.92V119.35ZM340.933 131.81H346.183C347.069 130.83 347.863 129.64 348.563 128.24C349.309 126.84 349.939 125.137 350.453 123.13C350.966 121.077 351.363 118.673 351.643 115.92C351.969 113.167 352.133 109.97 352.133 106.33V91.14H385.523V131.81H393.083V150.5H384.403V140H349.613V150.5H340.933V131.81ZM376.283 131.81V99.33H361.093V107.52C361.093 110.88 360.976 113.843 360.743 116.41C360.556 118.93 360.276 121.147 359.903 123.06C359.529 124.973 359.063 126.63 358.503 128.03C357.989 129.383 357.383 130.55 356.683 131.53V131.81H376.283ZM35.98 208L32.06 195.54H14.7L10.85 208H1.47L17.85 159.14H29.33L45.57 208H35.98ZM23.52 167.54H23.17L16.94 187.63H29.82L23.52 167.54ZM53.4603 199.81H61.5803L62.9803 196.24L45.6203 159.14H55.4203L63.4003 176.43L67.3203 185.74H67.5303L70.9603 176.29L77.8203 159.14H86.9903L69.7703 201.35C69.257 202.61 68.697 203.66 68.0903 204.5C67.4836 205.34 66.7836 206.04 65.9903 206.6C65.197 207.113 64.2636 207.487 63.1903 207.72C62.1636 207.907 60.9503 208 59.5503 208H53.4603V199.81ZM113.24 167.33V208H104V167.33H90.1403V159.14H127.1V167.33H113.24ZM151.927 208.84C148.707 208.84 145.79 208.327 143.177 207.3C140.61 206.227 138.393 204.64 136.527 202.54C134.707 200.44 133.307 197.85 132.327 194.77C131.347 191.643 130.857 188.027 130.857 183.92C130.857 179.813 131.347 176.173 132.327 173C133.307 169.78 134.707 167.097 136.527 164.95C138.393 162.757 140.61 161.1 143.177 159.98C145.79 158.86 148.707 158.3 151.927 158.3C156.313 158.3 159.953 159.233 162.847 161.1C165.74 162.967 168.05 165.79 169.777 169.57L161.867 173.77C161.167 171.577 160.023 169.827 158.437 168.52C156.85 167.167 154.68 166.49 151.927 166.49C148.473 166.49 145.72 167.657 143.667 169.99C141.66 172.323 140.657 175.59 140.657 179.79V187.49C140.657 191.737 141.66 195.003 143.667 197.29C145.72 199.53 148.473 200.65 151.927 200.65C154.68 200.65 156.92 199.903 158.647 198.41C160.42 196.917 161.703 195.073 162.497 192.88L169.987 197.29C168.213 200.93 165.857 203.777 162.917 205.83C159.977 207.837 156.313 208.84 151.927 208.84ZM196.16 208.84C192.94 208.84 190.024 208.303 187.41 207.23C184.797 206.157 182.557 204.547 180.69 202.4C178.87 200.253 177.447 197.617 176.42 194.49C175.394 191.363 174.88 187.723 174.88 183.57C174.88 179.463 175.394 175.847 176.42 172.72C177.447 169.547 178.87 166.887 180.69 164.74C182.557 162.593 184.797 160.983 187.41 159.91C190.024 158.837 192.94 158.3 196.16 158.3C199.38 158.3 202.297 158.837 204.91 159.91C207.524 160.983 209.764 162.593 211.63 164.74C213.497 166.887 214.92 169.547 215.9 172.72C216.927 175.847 217.44 179.463 217.44 183.57C217.44 187.723 216.927 191.363 215.9 194.49C214.92 197.617 213.497 200.253 211.63 202.4C209.764 204.547 207.524 206.157 204.91 207.23C202.297 208.303 199.38 208.84 196.16 208.84ZM196.16 200.65C199.66 200.65 202.437 199.483 204.49 197.15C206.59 194.817 207.64 191.55 207.64 187.35V179.79C207.64 175.59 206.59 172.323 204.49 169.99C202.437 167.657 199.66 166.49 196.16 166.49C192.66 166.49 189.86 167.657 187.76 169.99C185.707 172.323 184.68 175.59 184.68 179.79V187.35C184.68 191.55 185.707 194.817 187.76 197.15C189.86 199.483 192.66 200.65 196.16 200.65ZM226.814 208V159.14H248.794C251.034 159.14 253.041 159.513 254.814 160.26C256.634 160.96 258.174 161.987 259.434 163.34C260.694 164.647 261.651 166.233 262.304 168.1C262.958 169.967 263.284 172.02 263.284 174.26C263.284 176.547 262.958 178.623 262.304 180.49C261.651 182.31 260.694 183.897 259.434 185.25C258.174 186.557 256.634 187.583 254.814 188.33C253.041 189.03 251.034 189.38 248.794 189.38H236.054V208H226.814ZM236.054 181.4H247.954C249.728 181.4 251.128 180.933 252.154 180C253.181 179.02 253.694 177.643 253.694 175.87V172.65C253.694 170.877 253.181 169.523 252.154 168.59C251.128 167.657 249.728 167.19 247.954 167.19H236.054V181.4ZM290.628 208.84C287.408 208.84 284.491 208.327 281.878 207.3C279.311 206.227 277.095 204.64 275.228 202.54C273.408 200.44 272.008 197.85 271.028 194.77C270.048 191.643 269.558 188.027 269.558 183.92C269.558 179.813 270.048 176.173 271.028 173C272.008 169.78 273.408 167.097 275.228 164.95C277.095 162.757 279.311 161.1 281.878 159.98C284.491 158.86 287.408 158.3 290.628 158.3C295.015 158.3 298.655 159.233 301.548 161.1C304.441 162.967 306.751 165.79 308.478 169.57L300.568 173.77C299.868 171.577 298.725 169.827 297.138 168.52C295.551 167.167 293.381 166.49 290.628 166.49C287.175 166.49 284.421 167.657 282.368 169.99C280.361 172.323 279.358 175.59 279.358 179.79V187.49C279.358 191.737 280.361 195.003 282.368 197.29C284.421 199.53 287.175 200.65 290.628 200.65C293.381 200.65 295.621 199.903 297.348 198.41C299.121 196.917 300.405 195.073 301.198 192.88L308.688 197.29C306.915 200.93 304.558 203.777 301.618 205.83C298.678 207.837 295.015 208.84 290.628 208.84Z" fill="#1F1F1F"/>
<path d="M26.32 136.5H26.82V136H26.32V136.5ZM15.05 134.89L15.2429 134.429L15.05 134.89ZM8.47 130.55L8.11197 130.899L8.11645 130.904L8.47 130.55ZM4.2 123.97L3.73278 124.148L3.73695 124.159L4.2 123.97ZM4.2 107.45L4.66711 107.628L4.2 107.45ZM8.4 100.8L8.758 101.149L8.4 100.8ZM14.98 96.39L14.79 95.9275L14.7871 95.9287L14.98 96.39ZM26.32 94.78V95.28H26.82V94.78H26.32ZM26.32 88.48V87.98H25.82V88.48H26.32ZM35.7 88.48H36.2V87.98H35.7V88.48ZM35.7 94.78H35.2V95.28H35.7V94.78ZM46.97 96.39L46.7771 96.8513L46.78 96.8525L46.97 96.39ZM53.62 100.8L53.262 101.149L53.62 100.8ZM57.82 107.45L57.3529 107.628V107.628L57.82 107.45ZM57.75 123.97L57.2857 123.784L57.284 123.789L57.75 123.97ZM53.55 130.55L53.9036 130.904L53.908 130.899L53.55 130.55ZM46.9 134.89L46.71 134.427L46.7071 134.429L46.9 134.89ZM35.7 136.5V136H35.2V136.5H35.7ZM35.7 142.8V143.3H36.2V142.8H35.7ZM26.32 142.8H25.82V143.3H26.32V142.8ZM26.53 128.87V129.37H27.03V128.87H26.53ZM26.53 102.41H27.03V101.91H26.53V102.41ZM18.69 103.25L18.5095 102.784L18.5043 102.786L18.69 103.25ZM15.19 105.63L15.5522 105.975L15.56 105.966L15.19 105.63ZM13.02 109.13L12.5525 108.953L12.5498 108.96L12.5473 108.967L13.02 109.13ZM13.02 122.15L12.5473 122.313L12.5498 122.32L12.5525 122.327L13.02 122.15ZM15.19 125.72L14.8199 126.056L14.8279 126.065L15.19 125.72ZM18.69 128.03L18.5043 128.494L18.5095 128.496L18.69 128.03ZM43.26 128.03L43.4405 128.496L43.26 128.03ZM46.83 125.72L47.1922 126.065L47.2 126.056L46.83 125.72ZM48.93 122.15L48.4625 121.973L48.4598 121.98L48.4573 121.987L48.93 122.15ZM48.93 109.13L48.4573 109.293L48.4598 109.3L48.4625 109.307L48.93 109.13ZM46.83 105.63L46.4599 105.966L46.4679 105.975L46.83 105.63ZM43.26 103.25L43.4405 102.784V102.784L43.26 103.25ZM35.49 102.41V101.91H34.99V102.41H35.49ZM35.49 128.87H34.99V129.37H35.49V128.87ZM26.32 136H23.66V137H26.32V136ZM23.66 136C20.5436 136 17.7405 135.473 15.2429 134.429L14.8571 135.351C17.4929 136.454 20.4297 137 23.66 137V136ZM15.2429 134.429C12.7314 133.378 10.5939 131.967 8.82355 130.196L8.11645 130.904C9.98608 132.773 12.2353 134.255 14.8571 135.351L15.2429 134.429ZM8.828 130.201C7.055 128.382 5.66646 126.244 4.66305 123.781L3.73695 124.159C4.78688 126.736 6.245 128.984 8.112 130.899L8.828 130.201ZM4.66711 123.792C3.71034 121.286 3.23 118.593 3.23 115.71H2.23C2.23 118.707 2.72966 121.521 3.73289 124.148L4.66711 123.792ZM3.23 115.71C3.23 112.827 3.71034 110.134 4.66711 107.628L3.73289 107.272C2.72966 109.899 2.23 112.713 2.23 115.71H3.23ZM4.66711 107.628C5.6241 105.122 6.98818 102.964 8.758 101.149L8.042 100.451C6.17182 102.369 4.7359 104.645 3.73289 107.272L4.66711 107.628ZM8.758 101.149C10.528 99.3337 12.664 97.9005 15.1729 96.8513L14.7871 95.9287C12.1626 97.0262 9.91202 98.533 8.042 100.451L8.758 101.149ZM15.17 96.8525C17.7152 95.8071 20.5661 95.28 23.73 95.28V94.28C20.4539 94.28 17.4715 94.8262 14.79 95.9275L15.17 96.8525ZM23.73 95.28H26.32V94.28H23.73V95.28ZM26.82 94.78V88.48H25.82V94.78H26.82ZM26.32 88.98H35.7V87.98H26.32V88.98ZM35.2 88.48V94.78H36.2V88.48H35.2ZM35.7 95.28H38.29V94.28H35.7V95.28ZM38.29 95.28C41.4541 95.28 44.2804 95.8072 46.7771 96.8513L47.1629 95.9287C44.5263 94.8261 41.5659 94.28 38.29 94.28V95.28ZM46.78 96.8525C49.3355 97.9021 51.4936 99.3353 53.262 101.149L53.978 100.451C52.1065 98.5314 49.8311 97.0246 47.16 95.9275L46.78 96.8525ZM53.262 101.149C55.0318 102.964 56.3959 105.122 57.3529 107.628L58.2871 107.272C57.2841 104.645 55.8482 102.369 53.978 100.451L53.262 101.149ZM57.3529 107.628C58.3097 110.134 58.79 112.827 58.79 115.71H59.79C59.79 112.713 59.2903 109.899 58.2871 107.272L57.3529 107.628ZM58.79 115.71C58.79 118.59 58.2873 121.28 57.2858 123.784L58.2142 124.156C59.266 121.526 59.79 118.71 59.79 115.71H58.79ZM57.284 123.789C56.3274 126.249 54.9633 128.384 53.192 130.201L53.908 130.899C55.7767 128.982 57.2126 126.731 58.216 124.151L57.284 123.789ZM53.1964 130.196C51.4276 131.965 49.2682 133.377 46.71 134.427L47.09 135.353C49.7585 134.257 52.0324 132.775 53.9036 130.904L53.1964 130.196ZM46.7071 134.429C44.2087 135.474 41.4286 136 38.36 136V137C41.5447 137 44.458 136.453 47.0929 135.351L46.7071 134.429ZM38.36 136H35.7V137H38.36V136ZM35.2 136.5V142.8H36.2V136.5H35.2ZM35.7 142.3H26.32V143.3H35.7V142.3ZM26.82 142.8V136.5H25.82V142.8H26.82ZM27.03 128.87V102.41H26.03V128.87H27.03ZM26.53 101.91H23.73V102.91H26.53V101.91ZM23.73 101.91C21.7689 101.91 20.0254 102.197 18.5095 102.784L18.8705 103.716C20.2479 103.183 21.8645 102.91 23.73 102.91V101.91ZM18.5043 102.786C17.0402 103.371 15.8086 104.206 14.82 105.294L15.56 105.966C16.438 105 17.5398 104.249 18.8757 103.714L18.5043 102.786ZM14.8279 105.285C13.8455 106.317 13.0878 107.541 12.5525 108.953L13.4875 109.307C13.9789 108.012 14.6678 106.903 15.5521 105.975L14.8279 105.285ZM12.5473 108.967C12.0612 110.377 11.82 111.879 11.82 113.47H12.82C12.82 111.981 13.0454 110.59 13.4927 109.293L12.5473 108.967ZM11.82 113.47V117.81H12.82V113.47H11.82ZM11.82 117.81C11.82 119.401 12.0612 120.903 12.5473 122.313L13.4927 121.987C13.0454 120.69 12.82 119.299 12.82 117.81H11.82ZM12.5525 122.327C13.0871 123.737 13.8427 124.981 14.82 126.056L15.56 125.384C14.6706 124.405 13.9796 123.27 13.4875 121.973L12.5525 122.327ZM14.8279 126.065C15.8162 127.102 17.0453 127.911 18.5043 128.494L18.8757 127.566C17.5347 127.029 16.4305 126.298 15.5521 125.375L14.8279 126.065ZM18.5095 128.496C20.0254 129.083 21.7689 129.37 23.73 129.37V128.37C21.8645 128.37 20.2479 128.097 18.8705 127.564L18.5095 128.496ZM23.73 129.37H26.53V128.37H23.73V129.37ZM38.29 129.37C40.2062 129.37 41.9259 129.083 43.4405 128.496L43.0795 127.564C41.7008 128.097 40.1072 128.37 38.29 128.37V129.37ZM43.4405 128.496C44.9459 127.914 46.201 127.105 47.1921 126.065L46.4679 125.375C45.5924 126.295 44.4675 127.026 43.0795 127.564L43.4405 128.496ZM47.2 126.056C48.1804 124.978 48.9146 123.728 49.4027 122.313L48.4573 121.987C48.0121 123.278 47.3463 124.409 46.46 125.384L47.2 126.056ZM49.3975 122.327C49.9337 120.914 50.2 119.407 50.2 117.81H49.2C49.2 119.293 48.953 120.68 48.4625 121.973L49.3975 122.327ZM50.2 117.81V113.47H49.2V117.81H50.2ZM50.2 113.47C50.2 111.873 49.9337 110.366 49.3975 108.953L48.4625 109.307C48.953 110.6 49.2 111.987 49.2 113.47H50.2ZM49.4027 108.967C48.914 107.55 48.1777 106.32 47.1921 105.285L46.4679 105.975C47.3489 106.9 48.0127 108.004 48.4573 109.293L49.4027 108.967ZM47.2 105.294C46.2085 104.203 44.9509 103.368 43.4405 102.784L43.0795 103.716C44.4624 104.252 45.5848 105.004 46.46 105.966L47.2 105.294ZM43.4405 102.784C41.9259 102.197 40.2062 101.91 38.29 101.91V102.91C40.1072 102.91 41.7008 103.183 43.0795 103.716L43.4405 102.784ZM38.29 101.91H35.49V102.91H38.29V101.91ZM34.99 102.41V128.87H35.99V102.41H34.99ZM35.49 129.37H38.29V128.37H35.49V129.37ZM67.742 140H67.242V140.5H67.742V140ZM67.742 91.14V90.64H67.242V91.14H67.742ZM95.742 92.26L95.5479 92.7208L95.5552 92.7239L95.5625 92.7267L95.742 92.26ZM100.362 95.34L99.9959 95.6808L100.002 95.6871L100.362 95.34ZM103.232 100.1L103.704 99.9348V99.9348L103.232 100.1ZM103.232 112.49L103.703 112.659L103.704 112.655L103.232 112.49ZM100.362 117.25L100.722 117.597L100.728 117.591L100.362 117.25ZM95.742 120.33L95.9256 120.795L95.9317 120.793L95.742 120.33ZM76.982 121.38V120.88H76.482V121.38H76.982ZM76.982 140V140.5H77.482V140H76.982ZM76.982 113.4H76.482V113.9H76.982V113.4ZM93.082 112L93.4184 112.37L93.4272 112.362L93.082 112ZM93.082 100.59L93.4183 100.22L93.082 100.59ZM76.982 99.19V98.69H76.482V99.19H76.982ZM68.242 140V91.14H67.242V140H68.242ZM67.742 91.64H89.722V90.64H67.742V91.64ZM89.722 91.64C91.9061 91.64 93.8453 92.0039 95.5479 92.7208L95.936 91.7992C94.092 91.0228 92.0178 90.64 89.722 90.64V91.64ZM95.5625 92.7267C97.3155 93.4009 98.7906 94.386 99.996 95.6807L100.728 94.9993C99.4133 93.5873 97.8084 92.5191 95.9214 91.7933L95.5625 92.7267ZM100.002 95.6871C101.208 96.9374 102.128 98.4603 102.76 100.265L103.704 99.9348C103.029 98.0063 102.036 96.356 100.722 94.9929L100.002 95.6871ZM102.76 100.265C103.392 102.072 103.712 104.069 103.712 106.26H104.712C104.712 103.971 104.378 101.861 103.704 99.9348L102.76 100.265ZM103.712 106.26C103.712 108.499 103.392 110.519 102.76 112.325L103.704 112.655C104.378 110.728 104.712 108.594 104.712 106.26H103.712ZM102.761 112.321C102.13 114.08 101.208 115.608 99.996 116.909L100.728 117.591C102.036 116.186 103.027 114.54 103.703 112.659L102.761 112.321ZM100.002 116.903C98.794 118.156 97.3135 119.145 95.5522 119.867L95.9317 120.793C97.8104 120.022 99.4099 118.958 100.722 117.597L100.002 116.903ZM95.5584 119.865C93.8528 120.538 91.9099 120.88 89.722 120.88V121.88C92.014 121.88 94.0845 121.522 95.9255 120.795L95.5584 119.865ZM89.722 120.88H76.982V121.88H89.722V120.88ZM76.482 121.38V140H77.482V121.38H76.482ZM76.982 139.5H67.742V140.5H76.982V139.5ZM76.982 113.9H88.882V112.9H76.982V113.9ZM88.882 113.9C90.7439 113.9 92.2762 113.408 93.4183 112.37L92.7456 111.63C91.8344 112.458 90.5667 112.9 88.882 112.9V113.9ZM93.4272 112.362C94.5762 111.265 95.122 109.744 95.122 107.87H94.122C94.122 109.543 93.6411 110.775 92.7367 111.638L93.4272 112.362ZM95.122 107.87V104.65H94.122V107.87H95.122ZM95.122 104.65C95.122 102.777 94.5765 101.273 93.4183 100.22L92.7456 100.96C93.6407 101.774 94.122 102.976 94.122 104.65H95.122ZM93.4183 100.22C92.2762 99.1817 90.7439 98.69 88.882 98.69V99.69C90.5667 99.69 91.8344 100.132 92.7456 100.96L93.4183 100.22ZM88.882 98.69H76.982V99.69H88.882V98.69ZM76.482 99.19V113.4H77.482V99.19H76.482ZM116.296 134.4L115.914 134.723L115.918 134.728L116.296 134.4ZM112.026 126.49L111.551 126.646L112.026 126.49ZM112.026 104.72L112.501 104.876L112.501 104.874L112.026 104.72ZM116.296 96.74L115.918 96.4119L115.914 96.4167L116.296 96.74ZM140.516 91.91L140.706 91.4475L140.516 91.91ZM151.506 104.72L151.028 104.868L151.031 104.876L151.506 104.72ZM151.506 126.49L151.031 126.334L151.029 126.34L151.506 126.49ZM147.236 134.4L146.858 134.072L147.236 134.4ZM140.516 139.23L140.706 139.693L140.516 139.23ZM140.096 129.15L139.724 128.815L139.72 128.82L140.096 129.15ZM140.096 101.99L139.72 102.32L139.724 102.324L140.096 101.99ZM123.366 101.99L122.994 101.655L122.99 101.66L123.366 101.99ZM123.366 129.15L122.99 129.48L122.994 129.484L123.366 129.15ZM131.766 140.34C128.602 140.34 125.751 139.813 123.206 138.767L122.826 139.693C125.507 140.794 128.49 141.34 131.766 141.34V140.34ZM123.206 138.767C120.665 137.724 118.489 136.16 116.673 134.072L115.918 134.728C117.836 136.933 120.14 138.589 122.826 139.693L123.206 138.767ZM116.677 134.077C114.905 131.987 113.511 129.41 112.501 126.334L111.551 126.646C112.594 129.824 114.046 132.52 115.914 134.723L116.677 134.077ZM112.501 126.334C111.494 123.269 110.986 119.684 110.986 115.57H109.986C109.986 119.763 110.504 123.458 111.551 126.646L112.501 126.334ZM110.986 115.57C110.986 111.504 111.494 107.942 112.501 104.876L111.551 104.564C110.504 107.752 109.986 111.423 109.986 115.57H110.986ZM112.501 104.874C113.512 101.751 114.906 99.1519 116.677 97.0633L115.914 96.4167C114.045 98.6214 112.593 101.342 111.55 104.566L112.501 104.874ZM116.673 97.0681C118.489 94.9798 120.665 93.416 123.206 92.3725L122.826 91.4475C120.14 92.5506 117.836 94.2069 115.918 96.4119L116.673 97.0681ZM123.206 92.3725C125.751 91.3271 128.602 90.8 131.766 90.8V89.8C128.49 89.8 125.507 90.3462 122.826 91.4475L123.206 92.3725ZM131.766 90.8C134.93 90.8 137.781 91.3271 140.326 92.3725L140.706 91.4475C138.024 90.3462 135.042 89.8 131.766 89.8V90.8ZM140.326 92.3725C142.866 93.416 145.042 94.9798 146.858 97.0681L147.613 96.4119C145.696 94.2069 143.392 92.5506 140.706 91.4475L140.326 92.3725ZM146.858 97.0681C148.672 99.1542 150.065 101.75 151.028 104.868L151.983 104.572C150.986 101.344 149.532 98.6192 147.613 96.4119L146.858 97.0681ZM151.031 104.876C152.037 107.942 152.546 111.504 152.546 115.57H153.546C153.546 111.423 153.027 107.752 151.981 104.564L151.031 104.876ZM152.546 115.57C152.546 119.684 152.037 123.269 151.031 126.334L151.981 126.646C153.028 123.458 153.546 119.763 153.546 115.57H152.546ZM151.029 126.34C150.066 129.411 148.673 131.985 146.858 134.072L147.613 134.728C149.531 132.522 150.985 129.822 151.983 126.64L151.029 126.34ZM146.858 134.072C145.042 136.16 142.866 137.724 140.326 138.767L140.706 139.693C143.392 138.589 145.696 136.933 147.613 134.728L146.858 134.072ZM140.326 138.767C137.781 139.813 134.93 140.34 131.766 140.34V141.34C135.042 141.34 138.024 140.794 140.706 139.693L140.326 138.767ZM131.766 133.15C135.389 133.15 138.31 131.936 140.471 129.48L139.72 128.82C137.775 131.031 135.142 132.15 131.766 132.15V133.15ZM140.467 129.484C142.675 127.032 143.746 123.631 143.746 119.35H142.746C142.746 123.469 141.717 126.601 139.724 128.816L140.467 129.484ZM143.746 119.35V111.79H142.746V119.35H143.746ZM143.746 111.79C143.746 107.509 142.675 104.108 140.467 101.656L139.724 102.324C141.717 104.539 142.746 107.671 142.746 111.79H143.746ZM140.471 101.66C138.31 99.2042 135.389 97.99 131.766 97.99V98.99C135.142 98.99 137.775 100.109 139.72 102.32L140.471 101.66ZM131.766 97.99C128.142 97.99 125.2 99.2041 122.994 101.656L123.737 102.324C125.731 100.109 128.389 98.99 131.766 98.99V97.99ZM122.99 101.66C120.832 104.112 119.786 107.512 119.786 111.79H120.786C120.786 107.668 121.793 104.534 123.741 102.32L122.99 101.66ZM119.786 111.79V119.35H120.786V111.79H119.786ZM119.786 119.35C119.786 123.628 120.832 127.028 122.99 129.48L123.741 128.82C121.793 126.605 120.786 123.472 120.786 119.35H119.786ZM122.994 129.484C125.2 131.936 128.142 133.15 131.766 133.15V132.15C128.389 132.15 125.731 131.031 123.737 128.816L122.994 129.484ZM192.03 119.35H192.53V118.85H192.03V119.35ZM171.66 119.35V118.85H171.16V119.35H171.66ZM171.66 140V140.5H172.16V140H171.66ZM162.42 140H161.92V140.5H162.42V140ZM162.42 91.14V90.64H161.92V91.14H162.42ZM171.66 91.14H172.16V90.64H171.66V91.14ZM171.66 111.16H171.16V111.66H171.66V111.16ZM192.03 111.16V111.66H192.53V111.16H192.03ZM192.03 91.14V90.64H191.53V91.14H192.03ZM201.27 91.14H201.77V90.64H201.27V91.14ZM201.27 140V140.5H201.77V140H201.27ZM192.03 140H191.53V140.5H192.03V140ZM192.03 118.85H171.66V119.85H192.03V118.85ZM171.16 119.35V140H172.16V119.35H171.16ZM171.66 139.5H162.42V140.5H171.66V139.5ZM162.92 140V91.14H161.92V140H162.92ZM162.42 91.64H171.66V90.64H162.42V91.64ZM171.16 91.14V111.16H172.16V91.14H171.16ZM171.66 111.66H192.03V110.66H171.66V111.66ZM192.53 111.16V91.14H191.53V111.16H192.53ZM192.03 91.64H201.27V90.64H192.03V91.64ZM200.77 91.14V140H201.77V91.14H200.77ZM201.27 139.5H192.03V140.5H201.27V139.5ZM192.53 140V119.35H191.53V140H192.53ZM231.912 99.33V98.83H231.412V99.33H231.912ZM231.912 140V140.5H232.412V140H231.912ZM222.672 140H222.172V140.5H222.672V140ZM222.672 99.33H223.172V98.83H222.672V99.33ZM208.812 99.33H208.312V99.83H208.812V99.33ZM208.812 91.14V90.64H208.312V91.14H208.812ZM245.772 91.14H246.272V90.64H245.772V91.14ZM245.772 99.33V99.83H246.272V99.33H245.772ZM231.412 99.33V140H232.412V99.33H231.412ZM231.912 139.5H222.672V140.5H231.912V139.5ZM223.172 140V99.33H222.172V140H223.172ZM222.672 98.83H208.812V99.83H222.672V98.83ZM209.312 99.33V91.14H208.312V99.33H209.312ZM208.812 91.64H245.772V90.64H208.812V91.64ZM245.272 91.14V99.33H246.272V91.14H245.272ZM245.772 98.83H231.912V99.83H245.772V98.83ZM253.338 140H252.838V140.5H253.338V140ZM253.338 91.14V90.64H252.838V91.14H253.338ZM285.538 91.14H286.038V90.64H285.538V91.14ZM285.538 99.33V99.83H286.038V99.33H285.538ZM262.578 99.33V98.83H262.078V99.33H262.578ZM262.578 111.16H262.078V111.66H262.578V111.16ZM282.878 111.16H283.378V110.66H282.878V111.16ZM282.878 119.35V119.85H283.378V119.35H282.878ZM262.578 119.35V118.85H262.078V119.35H262.578ZM262.578 131.81H262.078V132.31H262.578V131.81ZM285.538 131.81H286.038V131.31H285.538V131.81ZM285.538 140V140.5H286.038V140H285.538ZM253.838 140V91.14H252.838V140H253.838ZM253.338 91.64H285.538V90.64H253.338V91.64ZM285.038 91.14V99.33H286.038V91.14H285.038ZM285.538 98.83H262.578V99.83H285.538V98.83ZM262.078 99.33V111.16H263.078V99.33H262.078ZM262.578 111.66H282.878V110.66H262.578V111.66ZM282.378 111.16V119.35H283.378V111.16H282.378ZM282.878 118.85H262.578V119.85H282.878V118.85ZM262.078 119.35V131.81H263.078V119.35H262.078ZM262.578 132.31H285.538V131.31H262.578V132.31ZM285.038 131.81V140H286.038V131.81H285.038ZM285.538 139.5H253.338V140.5H285.538V139.5ZM324.92 119.35H325.42V118.85H324.92V119.35ZM304.55 119.35V118.85H304.05V119.35H304.55ZM304.55 140V140.5H305.05V140H304.55ZM295.31 140H294.81V140.5H295.31V140ZM295.31 91.14V90.64H294.81V91.14H295.31ZM304.55 91.14H305.05V90.64H304.55V91.14ZM304.55 111.16H304.05V111.66H304.55V111.16ZM324.92 111.16V111.66H325.42V111.16H324.92ZM324.92 91.14V90.64H324.42V91.14H324.92ZM334.16 91.14H334.66V90.64H334.16V91.14ZM334.16 140V140.5H334.66V140H334.16ZM324.92 140H324.42V140.5H324.92V140ZM324.92 118.85H304.55V119.85H324.92V118.85ZM304.05 119.35V140H305.05V119.35H304.05ZM304.55 139.5H295.31V140.5H304.55V139.5ZM295.81 140V91.14H294.81V140H295.81ZM295.31 91.64H304.55V90.64H295.31V91.64ZM304.05 91.14V111.16H305.05V91.14H304.05ZM304.55 111.66H324.92V110.66H304.55V111.66ZM325.42 111.16V91.14H324.42V111.16H325.42ZM324.92 91.64H334.16V90.64H324.92V91.64ZM333.66 91.14V140H334.66V91.14H333.66ZM334.16 139.5H324.92V140.5H334.16V139.5ZM325.42 140V119.35H324.42V140H325.42ZM340.933 131.81V131.31H340.433V131.81H340.933ZM346.183 131.81V132.31H346.405L346.554 132.145L346.183 131.81ZM348.563 128.24L348.121 128.005L348.116 128.016L348.563 128.24ZM350.453 123.13L350.937 123.254L350.938 123.251L350.453 123.13ZM351.643 115.92L351.146 115.861L351.145 115.869L351.643 115.92ZM352.133 91.14V90.64H351.633V91.14H352.133ZM385.523 91.14H386.023V90.64H385.523V91.14ZM385.523 131.81H385.023V132.31H385.523V131.81ZM393.083 131.81H393.583V131.31H393.083V131.81ZM393.083 150.5V151H393.583V150.5H393.083ZM384.403 150.5H383.903V151H384.403V150.5ZM384.403 140H384.903V139.5H384.403V140ZM349.613 140V139.5H349.113V140H349.613ZM349.613 150.5V151H350.113V150.5H349.613ZM340.933 150.5H340.433V151H340.933V150.5ZM376.283 131.81V132.31H376.783V131.81H376.283ZM376.283 99.33H376.783V98.83H376.283V99.33ZM361.093 99.33V98.83H360.593V99.33H361.093ZM360.743 116.41L360.245 116.365L360.244 116.373L360.743 116.41ZM359.903 123.06L359.412 122.964L359.903 123.06ZM358.503 128.03L358.039 127.844L358.035 127.853L358.503 128.03ZM356.683 131.53L356.276 131.239L356.183 131.37V131.53H356.683ZM356.683 131.81H356.183V132.31H356.683V131.81ZM340.933 132.31H346.183V131.31H340.933V132.31ZM346.554 132.145C347.476 131.126 348.293 129.897 349.01 128.464L348.116 128.016C347.432 129.383 346.663 130.534 345.812 131.475L346.554 132.145ZM349.004 128.475C349.774 127.031 350.417 125.288 350.937 123.254L349.968 123.006C349.462 124.985 348.845 126.649 348.122 128.005L349.004 128.475ZM350.938 123.251C351.458 121.169 351.859 118.741 352.14 115.971L351.145 115.869C350.867 118.606 350.474 120.984 349.968 123.009L350.938 123.251ZM352.139 115.979C352.469 113.201 352.633 109.984 352.633 106.33H351.633C351.633 109.956 351.47 113.132 351.146 115.861L352.139 115.979ZM352.633 106.33V91.14H351.633V106.33H352.633ZM352.133 91.64H385.523V90.64H352.133V91.64ZM385.023 91.14V131.81H386.023V91.14H385.023ZM385.523 132.31H393.083V131.31H385.523V132.31ZM392.583 131.81V150.5H393.583V131.81H392.583ZM393.083 150H384.403V151H393.083V150ZM384.903 150.5V140H383.903V150.5H384.903ZM384.403 139.5H349.613V140.5H384.403V139.5ZM349.113 140V150.5H350.113V140H349.113ZM349.613 150H340.933V151H349.613V150ZM341.433 150.5V131.81H340.433V150.5H341.433ZM376.783 131.81V99.33H375.783V131.81H376.783ZM376.283 98.83H361.093V99.83H376.283V98.83ZM360.593 99.33V107.52H361.593V99.33H360.593ZM360.593 107.52C360.593 110.869 360.477 113.817 360.245 116.365L361.241 116.455C361.476 113.87 361.593 110.891 361.593 107.52H360.593ZM360.244 116.373C360.059 118.879 359.781 121.075 359.412 122.964L360.394 123.156C360.772 121.218 361.054 118.981 361.241 116.447L360.244 116.373ZM359.412 122.964C359.043 124.855 358.584 126.48 358.039 127.844L358.967 128.216C359.541 126.78 360.016 125.091 360.394 123.156L359.412 122.964ZM358.035 127.853C357.534 129.174 356.947 130.301 356.276 131.239L357.09 131.821C357.819 130.799 358.445 129.593 358.97 128.207L358.035 127.853ZM356.183 131.53V131.81H357.183V131.53H356.183ZM356.683 132.31H376.283V131.31H356.683V132.31ZM35.98 208L35.503 208.15L35.6131 208.5H35.98V208ZM32.06 195.54L32.537 195.39L32.4269 195.04H32.06V195.54ZM14.7 195.54V195.04H14.3312L14.2223 195.392L14.7 195.54ZM10.85 208V208.5H11.2188L11.3277 208.148L10.85 208ZM1.47 208L0.995931 207.841L0.775029 208.5H1.47V208ZM17.85 159.14V158.64H17.4903L17.3759 158.981L17.85 159.14ZM29.33 159.14L29.8045 158.982L29.6907 158.64H29.33V159.14ZM45.57 208V208.5H46.2631L46.0445 207.842L45.57 208ZM23.52 167.54L23.9971 167.39L23.8872 167.04H23.52V167.54ZM23.17 167.54V167.04H22.8016L22.6924 167.392L23.17 167.54ZM16.94 187.63L16.4624 187.482L16.2615 188.13H16.94V187.63ZM29.82 187.63V188.13H30.5008L30.2971 187.48L29.82 187.63ZM36.457 207.85L32.537 195.39L31.583 195.69L35.503 208.15L36.457 207.85ZM32.06 195.04H14.7V196.04H32.06V195.04ZM14.2223 195.392L10.3723 207.852L11.3277 208.148L15.1777 195.688L14.2223 195.392ZM10.85 207.5H1.47V208.5H10.85V207.5ZM1.94407 208.159L18.3241 159.299L17.3759 158.981L0.995931 207.841L1.94407 208.159ZM17.85 159.64H29.33V158.64H17.85V159.64ZM28.8555 159.298L45.0955 208.158L46.0445 207.842L29.8045 158.982L28.8555 159.298ZM45.57 207.5H35.98V208.5H45.57V207.5ZM23.52 167.04H23.17V168.04H23.52V167.04ZM22.6924 167.392L16.4624 187.482L17.4176 187.778L23.6476 167.688L22.6924 167.392ZM16.94 188.13H29.82V187.13H16.94V188.13ZM30.2971 187.48L23.9971 167.39L23.0429 167.69L29.3429 187.78L30.2971 187.48ZM53.4603 199.81V199.31H52.9603V199.81H53.4603ZM61.5803 199.81V200.31H61.9213L62.0458 199.993L61.5803 199.81ZM62.9803 196.24L63.4458 196.423L63.5242 196.223L63.4332 196.028L62.9803 196.24ZM45.6203 159.14V158.64H44.8343L45.1674 159.352L45.6203 159.14ZM55.4203 159.14L55.8743 158.93L55.7402 158.64H55.4203V159.14ZM63.4003 176.43L63.8611 176.236L63.8578 176.228L63.8543 176.22L63.4003 176.43ZM67.3203 185.74L66.8595 185.934L66.9883 186.24H67.3203V185.74ZM67.5303 185.74V186.24H67.8807L68.0003 185.911L67.5303 185.74ZM70.9603 176.29L70.4961 176.104L70.4931 176.112L70.4903 176.119L70.9603 176.29ZM77.8203 159.14V158.64H77.4818L77.3561 158.954L77.8203 159.14ZM86.9903 159.14L87.4533 159.329L87.7343 158.64H86.9903V159.14ZM69.7703 201.35L69.3074 201.161L69.3073 201.161L69.7703 201.35ZM68.0903 204.5L68.4957 204.793L68.0903 204.5ZM65.9903 206.6L66.2619 207.02L66.2704 207.014L66.2787 207.008L65.9903 206.6ZM63.1903 207.72L63.2798 208.212L63.2882 208.21L63.2965 208.209L63.1903 207.72ZM53.4603 208H52.9603V208.5H53.4603V208ZM53.4603 200.31H61.5803V199.31H53.4603V200.31ZM62.0458 199.993L63.4458 196.423L62.5148 196.057L61.1148 199.627L62.0458 199.993ZM63.4332 196.028L46.0732 158.928L45.1674 159.352L62.5274 196.452L63.4332 196.028ZM45.6203 159.64H55.4203V158.64H45.6203V159.64ZM54.9663 159.35L62.9463 176.64L63.8543 176.22L55.8743 158.93L54.9663 159.35ZM62.9395 176.624L66.8595 185.934L67.7811 185.546L63.8611 176.236L62.9395 176.624ZM67.3203 186.24H67.5303V185.24H67.3203V186.24ZM68.0003 185.911L71.4303 176.461L70.4903 176.119L67.0603 185.569L68.0003 185.911ZM71.4246 176.476L78.2846 159.326L77.3561 158.954L70.4961 176.104L71.4246 176.476ZM77.8203 159.64H86.9903V158.64H77.8203V159.64ZM86.5274 158.951L69.3074 201.161L70.2333 201.539L87.4533 159.329L86.5274 158.951ZM69.3073 201.161C68.8046 202.395 68.2624 203.408 67.685 204.207L68.4957 204.793C69.1316 203.912 69.7094 202.825 70.2334 201.539L69.3073 201.161ZM67.685 204.207C67.1085 205.005 66.4472 205.665 65.702 206.192L66.2787 207.008C67.1201 206.415 67.8588 205.675 68.4957 204.793L67.685 204.207ZM65.7187 206.18C64.9834 206.656 64.108 207.009 63.0841 207.231L63.2965 208.209C64.4193 207.965 65.4106 207.571 66.2619 207.02L65.7187 206.18ZM63.1009 207.228C62.1117 207.408 60.9298 207.5 59.5503 207.5V208.5C60.9709 208.5 62.2155 208.405 63.2798 208.212L63.1009 207.228ZM59.5503 207.5H53.4603V208.5H59.5503V207.5ZM53.9603 208V199.81H52.9603V208H53.9603ZM113.24 167.33V166.83H112.74V167.33H113.24ZM113.24 208V208.5H113.74V208H113.24ZM104 208H103.5V208.5H104V208ZM104 167.33H104.5V166.83H104V167.33ZM90.1403 167.33H89.6403V167.83H90.1403V167.33ZM90.1403 159.14V158.64H89.6403V159.14H90.1403ZM127.1 159.14H127.6V158.64H127.1V159.14ZM127.1 167.33V167.83H127.6V167.33H127.1ZM112.74 167.33V208H113.74V167.33H112.74ZM113.24 207.5H104V208.5H113.24V207.5ZM104.5 208V167.33H103.5V208H104.5ZM104 166.83H90.1403V167.83H104V166.83ZM90.6403 167.33V159.14H89.6403V167.33H90.6403ZM90.1403 159.64H127.1V158.64H90.1403V159.64ZM126.6 159.14V167.33H127.6V159.14H126.6ZM127.1 166.83H113.24V167.83H127.1V166.83ZM143.177 207.3L142.984 207.761L142.994 207.765L143.177 207.3ZM136.527 202.54L136.149 202.867L136.153 202.872L136.527 202.54ZM132.327 194.77L131.85 194.92L131.85 194.922L132.327 194.77ZM132.327 173L132.805 173.148L132.805 173.146L132.327 173ZM136.527 164.95L136.146 164.626L136.145 164.627L136.527 164.95ZM143.177 159.98L142.98 159.52L142.977 159.522L143.177 159.98ZM162.847 161.1L162.576 161.52L162.847 161.1ZM169.777 169.57L170.011 170.012L170.427 169.791L170.232 169.362L169.777 169.57ZM161.867 173.77L161.39 173.922L161.572 174.492L162.101 174.212L161.867 173.77ZM158.437 168.52L158.112 168.9L158.119 168.906L158.437 168.52ZM143.667 169.99L143.291 169.66L143.288 169.664L143.667 169.99ZM143.667 197.29L143.291 197.62L143.298 197.628L143.667 197.29ZM158.647 198.41L158.325 198.028L158.32 198.032L158.647 198.41ZM162.497 192.88L162.75 192.449L162.231 192.144L162.027 192.71L162.497 192.88ZM169.987 197.29L170.436 197.509L170.639 197.094L170.24 196.859L169.987 197.29ZM162.917 205.83L163.199 206.243L163.203 206.24L162.917 205.83ZM151.927 208.34C148.76 208.34 145.907 207.835 143.36 206.835L142.994 207.765C145.673 208.818 148.653 209.34 151.927 209.34V208.34ZM143.37 206.839C140.873 205.795 138.718 204.252 136.9 202.208L136.153 202.872C138.069 205.028 140.347 206.659 142.984 207.761L143.37 206.839ZM136.905 202.213C135.136 200.172 133.766 197.644 132.803 194.618L131.85 194.922C132.848 198.056 134.278 200.708 136.149 202.867L136.905 202.213ZM132.804 194.62C131.842 191.553 131.357 187.988 131.357 183.92H130.357C130.357 188.065 130.851 191.734 131.85 194.92L132.804 194.62ZM131.357 183.92C131.357 179.852 131.842 176.263 132.805 173.148L131.849 172.852C130.851 176.083 130.357 179.775 130.357 183.92H131.357ZM132.805 173.146C133.769 169.978 135.14 167.359 136.908 165.273L136.145 164.627C134.274 166.834 132.844 169.582 131.848 172.854L132.805 173.146ZM136.908 165.274C138.726 163.137 140.882 161.527 143.377 160.438L142.977 159.522C140.338 160.673 138.061 162.376 136.146 164.626L136.908 165.274ZM143.374 160.44C145.917 159.35 148.766 158.8 151.927 158.8V157.8C148.648 157.8 145.663 158.37 142.98 159.52L143.374 160.44ZM151.927 158.8C156.243 158.8 159.783 159.718 162.576 161.52L163.118 160.68C160.124 158.748 156.383 157.8 151.927 157.8V158.8ZM162.576 161.52C165.374 163.325 167.627 166.067 169.322 169.778L170.232 169.362C168.474 165.513 166.107 162.608 163.118 160.68L162.576 161.52ZM169.542 169.128L161.632 173.328L162.101 174.212L170.011 170.012L169.542 169.128ZM162.343 173.618C161.618 171.344 160.424 169.509 158.755 168.134L158.119 168.906C159.623 170.144 160.716 171.809 161.39 173.922L162.343 173.618ZM158.761 168.14C157.059 166.687 154.76 165.99 151.927 165.99V166.99C154.6 166.99 156.642 167.646 158.112 168.9L158.761 168.14ZM151.927 165.99C148.348 165.99 145.451 167.206 143.291 169.66L144.042 170.32C145.989 168.108 148.599 166.99 151.927 166.99V165.99ZM143.288 169.664C141.179 172.116 140.157 175.514 140.157 179.79H141.157C141.157 175.666 142.142 172.53 144.046 170.316L143.288 169.664ZM140.157 179.79V187.49H141.157V179.79H140.157ZM140.157 187.49C140.157 191.81 141.178 195.211 143.291 197.62L144.043 196.96C142.143 194.795 141.157 191.663 141.157 187.49H140.157ZM143.298 197.628C145.46 199.986 148.354 201.15 151.927 201.15V200.15C148.593 200.15 145.981 199.074 144.035 196.952L143.298 197.628ZM151.927 201.15C154.774 201.15 157.139 200.376 158.974 198.788L158.32 198.032C156.702 199.431 154.586 200.15 151.927 200.15V201.15ZM158.969 198.792C160.81 197.242 162.144 195.325 162.967 193.05L162.027 192.71C161.263 194.821 160.03 196.591 158.325 198.028L158.969 198.792ZM162.243 193.311L169.733 197.721L170.24 196.859L162.75 192.449L162.243 193.311ZM169.537 197.071C167.796 200.645 165.492 203.421 162.631 205.42L163.203 206.24C166.221 204.132 168.631 201.215 170.436 197.509L169.537 197.071ZM162.635 205.417C159.796 207.355 156.236 208.34 151.927 208.34V209.34C156.39 209.34 160.158 208.318 163.199 206.243L162.635 205.417ZM180.69 202.4L180.309 202.723L180.313 202.728L180.69 202.4ZM176.42 194.49L175.945 194.646L176.42 194.49ZM176.42 172.72L176.895 172.876L176.896 172.874L176.42 172.72ZM180.69 164.74L180.313 164.412L180.309 164.417L180.69 164.74ZM204.91 159.91L205.1 159.447L204.91 159.91ZM215.9 172.72L215.422 172.868L215.425 172.876L215.9 172.72ZM215.9 194.49L215.425 194.334L215.423 194.34L215.9 194.49ZM211.63 202.4L211.253 202.072L211.63 202.4ZM204.91 207.23L205.1 207.693L204.91 207.23ZM204.49 197.15L204.119 196.815L204.115 196.82L204.49 197.15ZM204.49 169.99L204.115 170.32L204.119 170.324L204.49 169.99ZM187.76 169.99L187.389 169.655L187.385 169.66L187.76 169.99ZM187.76 197.15L187.385 197.48L187.389 197.484L187.76 197.15ZM196.16 208.34C192.996 208.34 190.145 207.813 187.6 206.767L187.22 207.693C189.902 208.794 192.884 209.34 196.16 209.34V208.34ZM187.6 206.767C185.059 205.724 182.883 204.16 181.068 202.072L180.313 202.728C182.23 204.933 184.534 206.589 187.22 207.693L187.6 206.767ZM181.072 202.077C179.3 199.987 177.905 197.41 176.895 194.334L175.945 194.646C176.989 197.824 178.441 200.52 180.309 202.723L181.072 202.077ZM176.895 194.334C175.889 191.269 175.38 187.684 175.38 183.57H174.38C174.38 187.763 174.898 191.458 175.945 194.646L176.895 194.334ZM175.38 183.57C175.38 179.504 175.889 175.942 176.895 172.876L175.945 172.564C174.898 175.752 174.38 179.423 174.38 183.57H175.38ZM176.896 172.874C177.906 169.751 179.301 167.152 181.072 165.063L180.309 164.417C178.44 166.621 176.988 169.342 175.945 172.566L176.896 172.874ZM181.068 165.068C182.883 162.98 185.059 161.416 187.6 160.373L187.22 159.447C184.534 160.551 182.23 162.207 180.313 164.412L181.068 165.068ZM187.6 160.373C190.145 159.327 192.996 158.8 196.16 158.8V157.8C192.884 157.8 189.902 158.346 187.22 159.447L187.6 160.373ZM196.16 158.8C199.324 158.8 202.175 159.327 204.72 160.373L205.1 159.447C202.419 158.346 199.436 157.8 196.16 157.8V158.8ZM204.72 160.373C207.261 161.416 209.437 162.98 211.253 165.068L212.008 164.412C210.09 162.207 207.786 160.551 205.1 159.447L204.72 160.373ZM211.253 165.068C213.067 167.154 214.46 169.75 215.423 172.868L216.378 172.572C215.381 169.344 213.927 166.619 212.008 164.412L211.253 165.068ZM215.425 172.876C216.432 175.942 216.94 179.504 216.94 183.57H217.94C217.94 179.423 217.422 175.752 216.375 172.564L215.425 172.876ZM216.94 183.57C216.94 187.684 216.432 191.269 215.425 194.334L216.375 194.646C217.422 191.458 217.94 187.763 217.94 183.57H216.94ZM215.423 194.34C214.461 197.411 213.068 199.985 211.253 202.072L212.008 202.728C213.926 200.522 215.38 197.822 216.377 194.64L215.423 194.34ZM211.253 202.072C209.437 204.16 207.261 205.724 204.72 206.767L205.1 207.693C207.786 206.589 210.09 204.933 212.008 202.728L211.253 202.072ZM204.72 206.767C202.175 207.813 199.324 208.34 196.16 208.34V209.34C199.436 209.34 202.419 208.794 205.1 207.693L204.72 206.767ZM196.16 201.15C199.784 201.15 202.705 199.936 204.866 197.48L204.115 196.82C202.169 199.031 199.537 200.15 196.16 200.15V201.15ZM204.862 197.484C207.069 195.032 208.14 191.631 208.14 187.35H207.14C207.14 191.469 206.111 194.601 204.119 196.816L204.862 197.484ZM208.14 187.35V179.79H207.14V187.35H208.14ZM208.14 179.79C208.14 175.509 207.069 172.108 204.862 169.656L204.119 170.324C206.111 172.539 207.14 175.671 207.14 179.79H208.14ZM204.866 169.66C202.705 167.204 199.784 165.99 196.16 165.99V166.99C199.537 166.99 202.169 168.109 204.115 170.32L204.866 169.66ZM196.16 165.99C192.537 165.99 189.595 167.204 187.389 169.656L188.132 170.324C190.126 168.109 192.784 166.99 196.16 166.99V165.99ZM187.385 169.66C185.227 172.112 184.18 175.511 184.18 179.79H185.18C185.18 175.668 186.187 172.535 188.136 170.32L187.385 169.66ZM184.18 179.79V187.35H185.18V179.79H184.18ZM184.18 187.35C184.18 191.628 185.227 195.028 187.385 197.48L188.136 196.82C186.187 194.605 185.18 191.472 185.18 187.35H184.18ZM187.389 197.484C189.595 199.936 192.537 201.15 196.16 201.15V200.15C192.784 200.15 190.126 199.031 188.132 196.816L187.389 197.484ZM226.814 208H226.314V208.5H226.814V208ZM226.814 159.14V158.64H226.314V159.14H226.814ZM254.814 160.26L254.62 160.721L254.627 160.724L254.635 160.727L254.814 160.26ZM259.434 163.34L259.068 163.681L259.074 163.687L259.434 163.34ZM262.304 168.1L262.776 167.935L262.304 168.1ZM262.304 180.49L262.775 180.659L262.776 180.655L262.304 180.49ZM259.434 185.25L259.794 185.597L259.8 185.591L259.434 185.25ZM254.814 188.33L254.998 188.795L255.004 188.793L254.814 188.33ZM236.054 189.38V188.88H235.554V189.38H236.054ZM236.054 208V208.5H236.554V208H236.054ZM236.054 181.4H235.554V181.9H236.054V181.4ZM252.154 180L252.491 180.37L252.499 180.362L252.154 180ZM252.154 168.59L252.491 168.22L252.154 168.59ZM236.054 167.19V166.69H235.554V167.19H236.054ZM227.314 208V159.14H226.314V208H227.314ZM226.814 159.64H248.794V158.64H226.814V159.64ZM248.794 159.64C250.978 159.64 252.918 160.004 254.62 160.721L255.008 159.799C253.164 159.023 251.09 158.64 248.794 158.64V159.64ZM254.635 160.727C256.388 161.401 257.863 162.386 259.068 163.681L259.8 162.999C258.486 161.587 256.881 160.519 254.994 159.793L254.635 160.727ZM259.074 163.687C260.28 164.937 261.201 166.46 261.832 168.265L262.776 167.935C262.101 166.006 261.108 164.356 259.794 162.993L259.074 163.687ZM261.832 168.265C262.465 170.072 262.784 172.069 262.784 174.26H263.784C263.784 171.971 263.45 169.861 262.776 167.935L261.832 168.265ZM262.784 174.26C262.784 176.499 262.464 178.519 261.832 180.325L262.776 180.655C263.451 178.728 263.784 176.594 263.784 174.26H262.784ZM261.834 180.321C261.202 182.08 260.28 183.608 259.068 184.909L259.8 185.591C261.108 184.186 262.1 182.54 262.775 180.659L261.834 180.321ZM259.074 184.903C257.866 186.156 256.386 187.145 254.624 187.867L255.004 188.793C256.883 188.022 258.482 186.958 259.794 185.597L259.074 184.903ZM254.631 187.865C252.925 188.538 250.982 188.88 248.794 188.88V189.88C251.086 189.88 253.157 189.522 254.998 188.795L254.631 187.865ZM248.794 188.88H236.054V189.88H248.794V188.88ZM235.554 189.38V208H236.554V189.38H235.554ZM236.054 207.5H226.814V208.5H236.054V207.5ZM236.054 181.9H247.954V180.9H236.054V181.9ZM247.954 181.9C249.816 181.9 251.348 181.408 252.491 180.37L251.818 179.63C250.907 180.458 249.639 180.9 247.954 180.9V181.9ZM252.499 180.362C253.648 179.265 254.194 177.744 254.194 175.87H253.194C253.194 177.543 252.713 178.775 251.809 179.638L252.499 180.362ZM254.194 175.87V172.65H253.194V175.87H254.194ZM254.194 172.65C254.194 170.777 253.649 169.273 252.491 168.22L251.818 168.96C252.713 169.774 253.194 170.976 253.194 172.65H254.194ZM252.491 168.22C251.348 167.182 249.816 166.69 247.954 166.69V167.69C249.639 167.69 250.907 168.132 251.818 168.96L252.491 168.22ZM247.954 166.69H236.054V167.69H247.954V166.69ZM235.554 167.19V181.4H236.554V167.19H235.554ZM281.878 207.3L281.685 207.761L281.695 207.765L281.878 207.3ZM275.228 202.54L274.85 202.867L274.854 202.872L275.228 202.54ZM271.028 194.77L270.551 194.92L270.552 194.922L271.028 194.77ZM271.028 173L271.506 173.148L271.506 173.146L271.028 173ZM275.228 164.95L274.847 164.626L274.847 164.627L275.228 164.95ZM281.878 159.98L281.681 159.52L281.678 159.522L281.878 159.98ZM301.548 161.1L301.277 161.52L301.548 161.1ZM308.478 169.57L308.712 170.012L309.128 169.791L308.933 169.362L308.478 169.57ZM300.568 173.77L300.092 173.922L300.274 174.492L300.802 174.212L300.568 173.77ZM297.138 168.52L296.813 168.9L296.82 168.906L297.138 168.52ZM282.368 169.99L281.993 169.66L281.989 169.664L282.368 169.99ZM282.368 197.29L281.992 197.62L281.999 197.628L282.368 197.29ZM297.348 198.41L297.026 198.028L297.021 198.032L297.348 198.41ZM301.198 192.88L301.452 192.449L300.933 192.144L300.728 192.71L301.198 192.88ZM308.688 197.29L309.137 197.509L309.34 197.094L308.942 196.859L308.688 197.29ZM301.618 205.83L301.9 206.243L301.904 206.24L301.618 205.83ZM290.628 208.34C287.461 208.34 284.608 207.835 282.061 206.835L281.695 207.765C284.375 208.818 287.354 209.34 290.628 209.34V208.34ZM282.071 206.839C279.574 205.795 277.419 204.252 275.602 202.208L274.854 202.872C276.77 205.028 279.048 206.659 281.685 207.761L282.071 206.839ZM275.606 202.213C273.837 200.172 272.467 197.644 271.504 194.618L270.552 194.922C271.549 198.056 272.979 200.708 274.85 202.867L275.606 202.213ZM271.505 194.62C270.544 191.553 270.058 187.988 270.058 183.92H269.058C269.058 188.065 269.552 191.734 270.551 194.92L271.505 194.62ZM270.058 183.92C270.058 179.852 270.543 176.263 271.506 173.148L270.55 172.852C269.552 176.083 269.058 179.775 269.058 183.92H270.058ZM271.506 173.146C272.47 169.978 273.841 167.359 275.609 165.273L274.847 164.627C272.975 166.834 271.546 169.582 270.55 172.854L271.506 173.146ZM275.609 165.274C277.428 163.137 279.583 161.527 282.078 160.438L281.678 159.522C279.04 160.673 276.762 162.376 274.847 164.626L275.609 165.274ZM282.075 160.44C284.618 159.35 287.467 158.8 290.628 158.8V157.8C287.349 157.8 284.364 158.37 281.681 159.52L282.075 160.44ZM290.628 158.8C294.945 158.8 298.484 159.718 301.277 161.52L301.819 160.68C298.825 158.748 295.085 157.8 290.628 157.8V158.8ZM301.277 161.52C304.075 163.325 306.328 166.067 308.023 169.778L308.933 169.362C307.175 165.513 304.808 162.608 301.819 160.68L301.277 161.52ZM308.243 169.128L300.333 173.328L300.802 174.212L308.712 170.012L308.243 169.128ZM301.044 173.618C300.319 171.344 299.125 169.509 297.456 168.134L296.82 168.906C298.324 170.144 299.417 171.809 300.092 173.922L301.044 173.618ZM297.462 168.14C295.76 166.687 293.462 165.99 290.628 165.99V166.99C293.301 166.99 295.343 167.646 296.814 168.9L297.462 168.14ZM290.628 165.99C287.049 165.99 284.152 167.206 281.993 169.66L282.743 170.32C284.691 168.108 287.3 166.99 290.628 166.99V165.99ZM281.989 169.664C279.88 172.116 278.858 175.514 278.858 179.79H279.858C279.858 175.666 280.843 172.53 282.747 170.316L281.989 169.664ZM278.858 179.79V187.49H279.858V179.79H278.858ZM278.858 187.49C278.858 191.81 279.879 195.211 281.992 197.62L282.744 196.96C280.844 194.795 279.858 191.663 279.858 187.49H278.858ZM281.999 197.628C284.161 199.986 287.056 201.15 290.628 201.15V200.15C287.294 200.15 284.682 199.074 282.737 196.952L281.999 197.628ZM290.628 201.15C293.476 201.15 295.84 200.376 297.675 198.788L297.021 198.032C295.403 199.431 293.287 200.15 290.628 200.15V201.15ZM297.67 198.792C299.511 197.242 300.845 195.325 301.668 193.05L300.728 192.71C299.964 194.821 298.732 196.591 297.026 198.028L297.67 198.792ZM300.944 193.311L308.434 197.721L308.942 196.859L301.452 192.449L300.944 193.311ZM308.238 197.071C306.498 200.645 304.193 203.421 301.332 205.42L301.904 206.24C304.923 204.132 307.332 201.215 309.137 197.509L308.238 197.071ZM301.336 205.417C298.497 207.355 294.938 208.34 290.628 208.34V209.34C295.092 209.34 298.859 208.318 301.9 206.243L301.336 205.417Z" fill="white"/>
</g>
<path opacity="0.9" d="M3.19 62.81H8.79C9.63 61.9233 10.3533 60.85 10.96 59.59C11.6133 58.33 12.15 56.72 12.57 54.76C13.0367 52.7533 13.3633 50.3267 13.55 47.48C13.7833 44.5867 13.9 41.11 13.9 37.05V22.14H46.87V71H37.63V30.33H22.86V38.24C22.86 42.7667 22.6967 46.6633 22.37 49.93C22.0433 53.1967 21.6 55.9967 21.04 58.33C20.48 60.6167 19.8033 62.5067 19.01 64C18.2167 65.4467 17.3533 66.66 16.42 67.64C15.1133 68.9467 13.69 69.88 12.15 70.44C10.61 71 8.72 71.28 6.48 71.28H3.19V62.81ZM58.3259 22.14H67.2859V48.04L66.3759 58.19H66.5859L71.4159 49.02L88.9159 22.14H97.1759V71H88.2159V45.1L89.1259 34.95H88.9159L84.0859 44.05L66.5859 71H58.3259V22.14ZM108.638 22.14H136.708V30.33H117.878V71H108.638V22.14ZM168.888 71L164.968 58.54H147.608L143.758 71H134.378L150.758 22.14H162.238L178.478 71H168.888ZM156.428 30.54H156.078L149.848 50.63H162.728L156.428 30.54ZM232.462 71L228.542 58.54H211.182L207.332 71H197.952L214.332 22.14H225.812L242.052 71H232.462ZM220.002 30.54H219.652L213.422 50.63H226.302L220.002 30.54ZM255.243 71.77C253.329 71.77 251.906 71.3033 250.973 70.37C250.086 69.39 249.643 68.1533 249.643 66.66V65.4C249.643 63.9067 250.086 62.67 250.973 61.69C251.906 60.71 253.329 60.22 255.243 60.22C257.203 60.22 258.626 60.71 259.513 61.69C260.399 62.67 260.843 63.9067 260.843 65.4V66.66C260.843 68.1533 260.399 69.39 259.513 70.37C258.626 71.3033 257.203 71.77 255.243 71.77Z" fill="white"/>
</svg>
