<svg xmlns="http://www.w3.org/2000/svg" width="104" height="24" viewBox="0 0 104 24"><g><g><g><g><path d="M35.642.12l-6.619 11.946-1.007 2.259.214-2.041L28.221.12H23.16v23.467h.018v.014h4.629l6.624-12.188.924-2.104-.164 1.887.01 12.405h5.06L40.244.12z"/></g><g><path d="M10.095.12l-2.46.005L0 23.6h5.098L9.995 6.82 14.86 23.6h5.33L12.546.12z"/></g><g><path d="M60.143.12H45.77V23.587h5.093V5.493h9.28z"/></g><g><path d="M73.021 19.162h-7.18l-1.298 4.444H59.45L67.08.125 69.54.12h2.452l7.648 23.486h-5.33zm-1.28-4.416l-2.296-7.923-2.314 7.923z"/></g></g><g><path d="M86.82.09v17.48l8.592 5.953 8.592-5.954V.09z"/></g><g><g><path fill="#fff" d="M100.365 13.458c.169 0 .356-.019.542-.082l-.018 1.945c-.46.164-1.048.29-1.613.285-1.025-.01-1.795-.402-2.205-1.175-.988.778-2.14 1.238-3.626 1.228-1.881-.02-3.503-1.141-3.485-3.173.023-2.607 2.433-3.395 4.442-3.376.793.01 1.672.121 2.378.3l.004-.362c.01-1.026-.779-1.737-2.346-1.751-1.38-.015-2.615.362-3.558.735l.023-2.564c.816-.27 2.346-.662 3.895-.648 3.011.03 4.92 1.306 4.893 4.682l-.027 3.27c-.01.532.323.682.701.686zm-7.817-1.141c-.01.846.747 1.393 1.713 1.403.897.01 1.749-.242 2.492-.895l.013-1.76c-.483-.122-1.216-.271-1.881-.276-1.171-.015-2.324.377-2.337 1.528z"/></g></g></g></g></svg>